<?xml version="1.0" encoding="UTF-8" standalone="no"?>
<!DOCTYPE svg PUBLIC "-//W3C//DTD SVG 1.1//EN"
 "http://www.w3.org/Graphics/SVG/1.1/DTD/svg11.dtd">
<!-- Generated by graphviz version 2.43.0 (0)
 -->
<!-- Title: G Pages: 1 -->
<svg width="375pt" height="270pt"
 viewBox="0.00 0.00 375.33 269.70" xmlns="http://www.w3.org/2000/svg" xmlns:xlink="http://www.w3.org/1999/xlink">
<g id="graph0" class="graph" transform="scale(1 1) rotate(0) translate(4 265.7)">
<title>G</title>
<polygon fill="white" stroke="transparent" points="-4,4 -4,-265.7 371.33,-265.7 371.33,4 -4,4"/>
<!-- board.cache_hierarchy.ruby_system.network.routers0 -->
<g id="node1" class="node">
<title>board.cache_hierarchy.ruby_system.network.routers0</title>
<path fill="#cce6fc" stroke="#000000" d="M114.79,-111.91C114.79,-111.91 144.79,-111.91 144.79,-111.91 150.79,-111.91 156.79,-117.91 156.79,-123.91 156.79,-123.91 156.79,-135.91 156.79,-135.91 156.79,-141.91 150.79,-147.91 144.79,-147.91 144.79,-147.91 114.79,-147.91 114.79,-147.91 108.79,-147.91 102.79,-141.91 102.79,-135.91 102.79,-135.91 102.79,-123.91 102.79,-123.91 102.79,-117.91 108.79,-111.91 114.79,-111.91"/>
<text text-anchor="middle" x="129.79" y="-126.21" font-family="Arial" font-size="14.00" fill="#000000">R 0</text>
</g>
<!-- board.cache_hierarchy.ruby_system.network.routers1 -->
<g id="node2" class="node">
<title>board.cache_hierarchy.ruby_system.network.routers1</title>
<path fill="#cce6fc" stroke="#000000" d="M199.58,-116.63C199.58,-116.63 229.58,-116.63 229.58,-116.63 235.58,-116.63 241.58,-122.63 241.58,-128.63 241.58,-128.63 241.58,-140.63 241.58,-140.63 241.58,-146.63 235.58,-152.63 229.58,-152.63 229.58,-152.63 199.58,-152.63 199.58,-152.63 193.58,-152.63 187.58,-146.63 187.58,-140.63 187.58,-140.63 187.58,-128.63 187.58,-128.63 187.58,-122.63 193.58,-116.63 199.58,-116.63"/>
<text text-anchor="middle" x="214.58" y="-130.93" font-family="Arial" font-size="14.00" fill="#000000">R 1</text>
</g>
<!-- board.cache_hierarchy.ruby_system.network.routers0&#45;&#45;board.cache_hierarchy.ruby_system.network.routers1 -->
<g id="edge1" class="edge">
<title>board.cache_hierarchy.ruby_system.network.routers0&#45;&#45;board.cache_hierarchy.ruby_system.network.routers1</title>
<path fill="none" stroke="#042d50" d="M157.08,-131.43C163.44,-131.79 170.31,-132.17 177.02,-132.54"/>
<polygon fill="#042d50" stroke="#042d50" points="177.16,-136.05 187.33,-133.11 177.54,-129.06 177.16,-136.05"/>
</g>
<!-- board.cache_hierarchy.ruby_system.network.routers2 -->
<g id="node3" class="node">
<title>board.cache_hierarchy.ruby_system.network.routers2</title>
<path fill="#cce6fc" stroke="#000000" d="M136.57,-72.18C136.57,-72.18 166.57,-72.18 166.57,-72.18 172.57,-72.18 178.57,-78.18 178.57,-84.18 178.57,-84.18 178.57,-96.18 178.57,-96.18 178.57,-102.18 172.57,-108.18 166.57,-108.18 166.57,-108.18 136.57,-108.18 136.57,-108.18 130.57,-108.18 124.57,-102.18 124.57,-96.18 124.57,-96.18 124.57,-84.18 124.57,-84.18 124.57,-78.18 130.57,-72.18 136.57,-72.18"/>
<text text-anchor="middle" x="151.57" y="-86.48" font-family="Arial" font-size="14.00" fill="#000000">R 2</text>
</g>
<!-- board.cache_hierarchy.ruby_system.network.routers0&#45;&#45;board.cache_hierarchy.ruby_system.network.routers2 -->
<g id="edge2" class="edge">
<title>board.cache_hierarchy.ruby_system.network.routers0&#45;&#45;board.cache_hierarchy.ruby_system.network.routers2</title>
<path fill="none" stroke="#042d50" d="M147.35,-111.89C147.43,-111.74 147.51,-111.59 147.59,-111.44"/>
<polygon fill="#042d50" stroke="#042d50" points="147.87,-118.82 149.13,-108.3 141.58,-115.74 147.87,-118.82"/>
</g>
<!-- board.cache_hierarchy.ruby_system.network.routers3 -->
<g id="node4" class="node">
<title>board.cache_hierarchy.ruby_system.network.routers3</title>
<path fill="#cce6fc" stroke="#000000" d="M185.2,-140.22C185.2,-140.22 215.2,-140.22 215.2,-140.22 221.2,-140.22 227.2,-146.22 227.2,-152.22 227.2,-152.22 227.2,-164.22 227.2,-164.22 227.2,-170.22 221.2,-176.22 215.2,-176.22 215.2,-176.22 185.2,-176.22 185.2,-176.22 179.2,-176.22 173.2,-170.22 173.2,-164.22 173.2,-164.22 173.2,-152.22 173.2,-152.22 173.2,-146.22 179.2,-140.22 185.2,-140.22"/>
<text text-anchor="middle" x="200.2" y="-154.52" font-family="Arial" font-size="14.00" fill="#000000">R 3</text>
</g>
<!-- board.cache_hierarchy.ruby_system.network.routers0&#45;&#45;board.cache_hierarchy.ruby_system.network.routers3 -->
<g id="edge3" class="edge">
<title>board.cache_hierarchy.ruby_system.network.routers0&#45;&#45;board.cache_hierarchy.ruby_system.network.routers3</title>
<path fill="none" stroke="#042d50" d="M156.76,-147.94C159.02,-148.92 161.33,-149.88 163.66,-150.8"/>
<polygon fill="#042d50" stroke="#042d50" points="162.54,-154.12 173.14,-154.32 164.98,-147.56 162.54,-154.12"/>
</g>
<!-- board.cache_hierarchy.ruby_system.network.routers4 -->
<g id="node5" class="node">
<title>board.cache_hierarchy.ruby_system.network.routers4</title>
<path fill="#cce6fc" stroke="#000000" d="M182.46,-69.97C182.46,-69.97 212.46,-69.97 212.46,-69.97 218.46,-69.97 224.46,-75.97 224.46,-81.97 224.46,-81.97 224.46,-93.97 224.46,-93.97 224.46,-99.97 218.46,-105.97 212.46,-105.97 212.46,-105.97 182.46,-105.97 182.46,-105.97 176.46,-105.97 170.46,-99.97 170.46,-93.97 170.46,-93.97 170.46,-81.97 170.46,-81.97 170.46,-75.97 176.46,-69.97 182.46,-69.97"/>
<text text-anchor="middle" x="197.46" y="-84.27" font-family="Arial" font-size="14.00" fill="#000000">R 4</text>
</g>
<!-- board.cache_hierarchy.ruby_system.network.routers0&#45;&#45;board.cache_hierarchy.ruby_system.network.routers4 -->
<g id="edge4" class="edge">
<title>board.cache_hierarchy.ruby_system.network.routers0&#45;&#45;board.cache_hierarchy.ruby_system.network.routers4</title>
<path fill="none" stroke="#042d50" d="M156.87,-120.75C161.77,-118.02 166.87,-114.95 171.74,-111.79"/>
<polygon fill="#042d50" stroke="#042d50" points="173.84,-114.59 180.15,-106.08 169.91,-108.8 173.84,-114.59"/>
</g>
<!-- board.cache_hierarchy.ruby_system.network.routers5 -->
<g id="node6" class="node">
<title>board.cache_hierarchy.ruby_system.network.routers5</title>
<path fill="#cce6fc" stroke="#000000" d="M137.87,-152.13C137.87,-152.13 167.87,-152.13 167.87,-152.13 173.87,-152.13 179.87,-158.13 179.87,-164.13 179.87,-164.13 179.87,-176.13 179.87,-176.13 179.87,-182.13 173.87,-188.13 167.87,-188.13 167.87,-188.13 137.87,-188.13 137.87,-188.13 131.87,-188.13 125.87,-182.13 125.87,-176.13 125.87,-176.13 125.87,-164.13 125.87,-164.13 125.87,-158.13 131.87,-152.13 137.87,-152.13"/>
<text text-anchor="middle" x="152.87" y="-166.43" font-family="Arial" font-size="14.00" fill="#000000">R 5</text>
</g>
<!-- board.cache_hierarchy.ruby_system.network.routers0&#45;&#45;board.cache_hierarchy.ruby_system.network.routers5 -->
<g id="edge5" class="edge">
<title>board.cache_hierarchy.ruby_system.network.routers0&#45;&#45;board.cache_hierarchy.ruby_system.network.routers5</title>
<path fill="none" stroke="#042d50" d="M132.71,-148.15C132.78,-148.31 132.86,-148.48 132.94,-148.64"/>
<polygon fill="#042d50" stroke="#042d50" points="127,-144.82 134.73,-152.06 133.2,-141.58 127,-144.82"/>
</g>
<!-- board.cache_hierarchy.ruby_system.network.routers1&#45;&#45;board.cache_hierarchy.ruby_system.network.routers2 -->
<g id="edge6" class="edge">
<title>board.cache_hierarchy.ruby_system.network.routers1&#45;&#45;board.cache_hierarchy.ruby_system.network.routers2</title>
<path fill="none" stroke="#042d50" d="M188.95,-116.55C187.88,-115.79 186.8,-115.03 185.71,-114.26"/>
<polygon fill="#042d50" stroke="#042d50" points="187.57,-111.29 177.38,-108.39 183.53,-117.01 187.57,-111.29"/>
</g>
<!-- board.cache_hierarchy.ruby_system.network.routers1&#45;&#45;board.cache_hierarchy.ruby_system.network.routers3 -->
<g id="edge7" class="edge">
<title>board.cache_hierarchy.ruby_system.network.routers1&#45;&#45;board.cache_hierarchy.ruby_system.network.routers3</title>
<path fill="none" stroke="#042d50" d="M198.04,-152.68C198.04,-152.75 198.03,-152.83 198.03,-152.91"/>
<polygon fill="#042d50" stroke="#042d50" points="194.99,-142.98 198.01,-153.13 201.99,-143.31 194.99,-142.98"/>
</g>
<!-- board.cache_hierarchy.ruby_system.network.routers1&#45;&#45;board.cache_hierarchy.ruby_system.network.routers4 -->
<g id="edge8" class="edge">
<title>board.cache_hierarchy.ruby_system.network.routers1&#45;&#45;board.cache_hierarchy.ruby_system.network.routers4</title>
<path fill="none" stroke="#042d50" d="M214.81,-116.62C214.72,-116.29 214.63,-115.96 214.54,-115.64"/>
<polygon fill="#042d50" stroke="#042d50" points="217.78,-114.3 211.21,-105.99 211.16,-116.59 217.78,-114.3"/>
</g>
<!-- board.cache_hierarchy.ruby_system.network.routers1&#45;&#45;board.cache_hierarchy.ruby_system.network.routers5 -->
<g id="edge9" class="edge">
<title>board.cache_hierarchy.ruby_system.network.routers1&#45;&#45;board.cache_hierarchy.ruby_system.network.routers5</title>
<path fill="none" stroke="#042d50" d="M187.25,-142.74C184.81,-144.02 182.33,-145.39 179.89,-146.8"/>
<polygon fill="#042d50" stroke="#042d50" points="178,-143.85 171.3,-152.06 181.65,-149.83 178,-143.85"/>
</g>
<!-- board.cache_hierarchy.ruby_system.network.routers2&#45;&#45;board.cache_hierarchy.ruby_system.network.routers0 -->
<g id="edge10" class="edge">
<title>board.cache_hierarchy.ruby_system.network.routers2&#45;&#45;board.cache_hierarchy.ruby_system.network.routers0</title>
<path fill="none" stroke="#042d50" d="M134.01,-108.2C133.93,-108.35 133.86,-108.5 133.78,-108.65"/>
<polygon fill="#042d50" stroke="#042d50" points="133.5,-101.27 132.24,-111.79 139.78,-104.35 133.5,-101.27"/>
</g>
<!-- board.cache_hierarchy.ruby_system.network.routers2&#45;&#45;board.cache_hierarchy.ruby_system.network.routers3 -->
<g id="edge11" class="edge">
<title>board.cache_hierarchy.ruby_system.network.routers2&#45;&#45;board.cache_hierarchy.ruby_system.network.routers3</title>
<path fill="none" stroke="#042d50" d="M164.61,-108.41C169.73,-115.58 175.71,-123.95 181.29,-131.76"/>
<polygon fill="#042d50" stroke="#042d50" points="178.47,-133.84 187.13,-139.94 184.17,-129.77 178.47,-133.84"/>
</g>
<!-- board.cache_hierarchy.ruby_system.network.routers2&#45;&#45;board.cache_hierarchy.ruby_system.network.routers4 -->
<g id="edge12" class="edge">
<title>board.cache_hierarchy.ruby_system.network.routers2&#45;&#45;board.cache_hierarchy.ruby_system.network.routers4</title>
<path fill="none" stroke="#042d50" d="M178.58,-95.56C178.66,-95.55 178.74,-95.54 178.82,-95.53"/>
<polygon fill="#042d50" stroke="#042d50" points="169.44,-99.95 179.06,-95.51 168.77,-92.99 169.44,-99.95"/>
</g>
<!-- board.cache_hierarchy.ruby_system.network.routers2&#45;&#45;board.cache_hierarchy.ruby_system.network.routers5 -->
<g id="edge13" class="edge">
<title>board.cache_hierarchy.ruby_system.network.routers2&#45;&#45;board.cache_hierarchy.ruby_system.network.routers5</title>
<path fill="none" stroke="#042d50" d="M146.11,-108.41C145.27,-118.28 145.23,-130.68 145.92,-141.77"/>
<polygon fill="#042d50" stroke="#042d50" points="142.44,-142.22 146.8,-151.88 149.42,-141.61 142.44,-142.22"/>
</g>
<!-- board.cache_hierarchy.ruby_system.network.routers3&#45;&#45;board.cache_hierarchy.ruby_system.network.routers0 -->
<g id="edge14" class="edge">
<title>board.cache_hierarchy.ruby_system.network.routers3&#45;&#45;board.cache_hierarchy.ruby_system.network.routers0</title>
<path fill="none" stroke="#042d50" d="M173.24,-140.19C170.97,-139.21 168.66,-138.26 166.34,-137.34"/>
<polygon fill="#042d50" stroke="#042d50" points="167.45,-134.02 156.86,-133.82 165.02,-140.58 167.45,-134.02"/>
</g>
<!-- board.cache_hierarchy.ruby_system.network.routers3&#45;&#45;board.cache_hierarchy.ruby_system.network.routers1 -->
<g id="edge15" class="edge">
<title>board.cache_hierarchy.ruby_system.network.routers3&#45;&#45;board.cache_hierarchy.ruby_system.network.routers1</title>
<path fill="none" stroke="#042d50" d="M216.74,-140.18C216.74,-140.1 216.75,-140.02 216.75,-139.95"/>
<polygon fill="#042d50" stroke="#042d50" points="219.79,-149.88 216.76,-139.72 212.79,-149.54 219.79,-149.88"/>
</g>
<!-- board.cache_hierarchy.ruby_system.network.routers3&#45;&#45;board.cache_hierarchy.ruby_system.network.routers4 -->
<g id="edge16" class="edge">
<title>board.cache_hierarchy.ruby_system.network.routers3&#45;&#45;board.cache_hierarchy.ruby_system.network.routers4</title>
<path fill="none" stroke="#042d50" d="M199.5,-140.13C199.21,-132.9 198.88,-124.39 198.57,-116.36"/>
<polygon fill="#042d50" stroke="#042d50" points="202.06,-116.1 198.17,-106.25 195.06,-116.38 202.06,-116.1"/>
</g>
<!-- board.cache_hierarchy.ruby_system.network.routers3&#45;&#45;board.cache_hierarchy.ruby_system.network.routers5 -->
<g id="edge17" class="edge">
<title>board.cache_hierarchy.ruby_system.network.routers3&#45;&#45;board.cache_hierarchy.ruby_system.network.routers5</title>
<path fill="none" stroke="#042d50" d="M172.96,-158.14C172.91,-158.15 172.87,-158.16 172.83,-158.18"/>
<polygon fill="#042d50" stroke="#042d50" points="181.41,-152.18 172.7,-158.21 183.27,-158.92 181.41,-152.18"/>
</g>
<!-- board.cache_hierarchy.ruby_system.network.routers4&#45;&#45;board.cache_hierarchy.ruby_system.network.routers0 -->
<g id="edge18" class="edge">
<title>board.cache_hierarchy.ruby_system.network.routers4&#45;&#45;board.cache_hierarchy.ruby_system.network.routers0</title>
<path fill="none" stroke="#042d50" d="M170.38,-97.14C165.48,-99.87 160.38,-102.94 155.51,-106.1"/>
<polygon fill="#042d50" stroke="#042d50" points="153.41,-103.3 147.1,-111.81 157.34,-109.09 153.41,-103.3"/>
</g>
<!-- board.cache_hierarchy.ruby_system.network.routers4&#45;&#45;board.cache_hierarchy.ruby_system.network.routers1 -->
<g id="edge19" class="edge">
<title>board.cache_hierarchy.ruby_system.network.routers4&#45;&#45;board.cache_hierarchy.ruby_system.network.routers1</title>
<path fill="none" stroke="#042d50" d="M197.22,-105.98C197.31,-106.31 197.4,-106.64 197.5,-106.97"/>
<polygon fill="#042d50" stroke="#042d50" points="194.25,-108.3 200.83,-116.61 200.87,-106.01 194.25,-108.3"/>
</g>
<!-- board.cache_hierarchy.ruby_system.network.routers4&#45;&#45;board.cache_hierarchy.ruby_system.network.routers2 -->
<g id="edge20" class="edge">
<title>board.cache_hierarchy.ruby_system.network.routers4&#45;&#45;board.cache_hierarchy.ruby_system.network.routers2</title>
<path fill="none" stroke="#042d50" d="M170.45,-82.59C170.37,-82.6 170.29,-82.61 170.21,-82.61"/>
<polygon fill="#042d50" stroke="#042d50" points="179.6,-78.2 169.98,-82.64 180.27,-85.16 179.6,-78.2"/>
</g>
<!-- board.cache_hierarchy.ruby_system.network.routers4&#45;&#45;board.cache_hierarchy.ruby_system.network.routers5 -->
<g id="edge21" class="edge">
<title>board.cache_hierarchy.ruby_system.network.routers4&#45;&#45;board.cache_hierarchy.ruby_system.network.routers5</title>
<path fill="none" stroke="#042d50" d="M187.56,-106.21C181.68,-117.06 174.1,-131.02 167.53,-143.13"/>
<polygon fill="#042d50" stroke="#042d50" points="164.43,-141.49 162.74,-151.95 170.59,-144.83 164.43,-141.49"/>
</g>
<!-- board.cache_hierarchy.ruby_system.network.routers5&#45;&#45;board.cache_hierarchy.ruby_system.network.routers0 -->
<g id="edge22" class="edge">
<title>board.cache_hierarchy.ruby_system.network.routers5&#45;&#45;board.cache_hierarchy.ruby_system.network.routers0</title>
<path fill="none" stroke="#042d50" d="M149.96,-151.9C149.88,-151.73 149.8,-151.57 149.72,-151.41"/>
<polygon fill="#042d50" stroke="#042d50" points="155.67,-155.23 147.93,-147.99 149.47,-158.47 155.67,-155.23"/>
</g>
<!-- board.cache_hierarchy.ruby_system.network.routers5&#45;&#45;board.cache_hierarchy.ruby_system.network.routers1 -->
<g id="edge23" class="edge">
<title>board.cache_hierarchy.ruby_system.network.routers5&#45;&#45;board.cache_hierarchy.ruby_system.network.routers1</title>
<path fill="none" stroke="#042d50" d="M180.2,-162.03C182.64,-160.74 185.12,-159.38 187.56,-157.96"/>
<polygon fill="#042d50" stroke="#042d50" points="189.45,-160.91 196.15,-152.7 185.8,-154.94 189.45,-160.91"/>
</g>
<!-- board.cache_hierarchy.ruby_system.network.routers5&#45;&#45;board.cache_hierarchy.ruby_system.network.routers2 -->
<g id="edge24" class="edge">
<title>board.cache_hierarchy.ruby_system.network.routers5&#45;&#45;board.cache_hierarchy.ruby_system.network.routers2</title>
<path fill="none" stroke="#042d50" d="M158.34,-151.9C159.17,-142.03 159.22,-129.63 158.53,-118.54"/>
<polygon fill="#042d50" stroke="#042d50" points="162.01,-118.09 157.65,-108.43 155.03,-118.7 162.01,-118.09"/>
</g>
<!-- board.cache_hierarchy.ruby_system.network.routers5&#45;&#45;board.cache_hierarchy.ruby_system.network.routers3 -->
<g id="edge25" class="edge">
<title>board.cache_hierarchy.ruby_system.network.routers5&#45;&#45;board.cache_hierarchy.ruby_system.network.routers3</title>
<path fill="none" stroke="#042d50" d="M180.12,-170.22C180.16,-170.2 180.21,-170.19 180.25,-170.18"/>
<polygon fill="#042d50" stroke="#042d50" points="171.67,-176.18 180.38,-170.14 169.81,-169.43 171.67,-176.18"/>
</g>
<!-- board.cache_hierarchy.ruby_system.l1_controllers -->
<g id="node7" class="node">
<title>board.cache_hierarchy.ruby_system.l1_controllers</title>
<path fill="#e5bcd0" stroke="#000000" d="M12,-113.76C12,-113.76 85,-113.76 85,-113.76 91,-113.76 97,-119.76 97,-125.76 97,-125.76 97,-137.76 97,-137.76 97,-143.76 91,-149.76 85,-149.76 85,-149.76 12,-149.76 12,-149.76 6,-149.76 0,-143.76 0,-137.76 0,-137.76 0,-125.76 0,-125.76 0,-119.76 6,-113.76 12,-113.76"/>
<text text-anchor="middle" x="48.5" y="-128.06" font-family="Arial" font-size="14.00" fill="#000000">l1_controllers</text>
</g>
<!-- board.cache_hierarchy.ruby_system.l1_controllers&#45;&#45;board.cache_hierarchy.ruby_system.network.routers0 -->
<g id="edge26" class="edge">
<title>board.cache_hierarchy.ruby_system.l1_controllers&#45;&#45;board.cache_hierarchy.ruby_system.network.routers0</title>
<path fill="none" stroke="#381526" d="M102.44,-130.54C102.5,-130.53 102.56,-130.53 102.61,-130.53"/>
<polygon fill="#381526" stroke="#381526" points="107.11,-126.93 97.2,-130.66 107.27,-133.93 107.11,-126.93"/>
<polygon fill="#381526" stroke="#381526" points="92.87,-134.26 102.79,-130.53 92.71,-127.26 92.87,-134.26"/>
</g>
<!-- board.cache_hierarchy.ruby_system.l2_controllers -->
<g id="node8" class="node">
<title>board.cache_hierarchy.ruby_system.l2_controllers</title>
<path fill="#e5bcd0" stroke="#000000" d="M223.09,-198.13C223.09,-198.13 296.09,-198.13 296.09,-198.13 302.09,-198.13 308.09,-204.13 308.09,-210.13 308.09,-210.13 308.09,-222.13 308.09,-222.13 308.09,-228.13 302.09,-234.13 296.09,-234.13 296.09,-234.13 223.09,-234.13 223.09,-234.13 217.09,-234.13 211.09,-228.13 211.09,-222.13 211.09,-222.13 211.09,-210.13 211.09,-210.13 211.09,-204.13 217.09,-198.13 223.09,-198.13"/>
<text text-anchor="middle" x="259.59" y="-212.43" font-family="Arial" font-size="14.00" fill="#000000">l2_controllers</text>
</g>
<!-- board.cache_hierarchy.ruby_system.l2_controllers&#45;&#45;board.cache_hierarchy.ruby_system.network.routers1 -->
<g id="edge27" class="edge">
<title>board.cache_hierarchy.ruby_system.l2_controllers&#45;&#45;board.cache_hierarchy.ruby_system.network.routers1</title>
<path fill="none" stroke="#381526" d="M244.57,-188.94C239.68,-180.08 234.25,-170.25 229.38,-161.43"/>
<polygon fill="#381526" stroke="#381526" points="241.7,-190.98 249.6,-198.04 247.83,-187.6 241.7,-190.98"/>
<polygon fill="#381526" stroke="#381526" points="232.44,-159.73 224.54,-152.67 226.31,-163.11 232.44,-159.73"/>
</g>
<!-- board.cache_hierarchy.ruby_system.directory_controllers0 -->
<g id="node9" class="node">
<title>board.cache_hierarchy.ruby_system.directory_controllers0</title>
<path fill="#e5bcd0" stroke="#000000" d="M50.48,-1.27C50.48,-1.27 172.48,-1.27 172.48,-1.27 178.48,-1.27 184.48,-7.27 184.48,-13.27 184.48,-13.27 184.48,-25.27 184.48,-25.27 184.48,-31.27 178.48,-37.27 172.48,-37.27 172.48,-37.27 50.48,-37.27 50.48,-37.27 44.48,-37.27 38.48,-31.27 38.48,-25.27 38.48,-25.27 38.48,-13.27 38.48,-13.27 38.48,-7.27 44.48,-1.27 50.48,-1.27"/>
<text text-anchor="middle" x="111.48" y="-15.57" font-family="Arial" font-size="14.00" fill="#000000">directory_controllers0</text>
</g>
<!-- board.cache_hierarchy.ruby_system.directory_controllers0&#45;&#45;board.cache_hierarchy.ruby_system.network.routers2 -->
<g id="edge28" class="edge">
<title>board.cache_hierarchy.ruby_system.directory_controllers0&#45;&#45;board.cache_hierarchy.ruby_system.network.routers2</title>
<path fill="none" stroke="#381526" d="M126.8,-46.36C129.87,-51.79 133.1,-57.5 136.17,-62.94"/>
<polygon fill="#381526" stroke="#381526" points="129.77,-44.51 121.8,-37.53 123.68,-47.96 129.77,-44.51"/>
<polygon fill="#381526" stroke="#381526" points="133.17,-64.75 141.14,-71.73 139.27,-61.3 133.17,-64.75"/>
</g>
<!-- board.cache_hierarchy.ruby_system.directory_controllers1 -->
<g id="node10" class="node">
<title>board.cache_hierarchy.ruby_system.directory_controllers1</title>
<path fill="#e5bcd0" stroke="#000000" d="M233.33,-127.86C233.33,-127.86 355.33,-127.86 355.33,-127.86 361.33,-127.86 367.33,-133.86 367.33,-139.86 367.33,-139.86 367.33,-151.86 367.33,-151.86 367.33,-157.86 361.33,-163.86 355.33,-163.86 355.33,-163.86 233.33,-163.86 233.33,-163.86 227.33,-163.86 221.33,-157.86 221.33,-151.86 221.33,-151.86 221.33,-139.86 221.33,-139.86 221.33,-133.86 227.33,-127.86 233.33,-127.86"/>
<text text-anchor="middle" x="294.33" y="-142.16" font-family="Arial" font-size="14.00" fill="#000000">directory_controllers1</text>
</g>
<!-- board.cache_hierarchy.ruby_system.directory_controllers1&#45;&#45;board.cache_hierarchy.ruby_system.network.routers3 -->
<g id="edge29" class="edge">
<title>board.cache_hierarchy.ruby_system.directory_controllers1&#45;&#45;board.cache_hierarchy.ruby_system.network.routers3</title>
<path fill="none" stroke="#381526" d="M220.95,-155.5C220.93,-155.5 220.9,-155.5 220.88,-155.51"/>
<polygon fill="#381526" stroke="#381526" points="211.64,-160.26 221.09,-155.48 210.72,-153.32 211.64,-160.26"/>
<polygon fill="#381526" stroke="#381526" points="230.26,-150.73 220.81,-155.52 231.18,-157.67 230.26,-150.73"/>
</g>
<!-- board.cache_hierarchy.ruby_system.dma_controllers0 -->
<g id="node11" class="node">
<title>board.cache_hierarchy.ruby_system.dma_controllers0</title>
<path fill="#e5bcd0" stroke="#000000" d="M190.68,-0.5C190.68,-0.5 287.68,-0.5 287.68,-0.5 293.68,-0.5 299.68,-6.5 299.68,-12.5 299.68,-12.5 299.68,-24.5 299.68,-24.5 299.68,-30.5 293.68,-36.5 287.68,-36.5 287.68,-36.5 190.68,-36.5 190.68,-36.5 184.68,-36.5 178.68,-30.5 178.68,-24.5 178.68,-24.5 178.68,-12.5 178.68,-12.5 178.68,-6.5 184.68,-0.5 190.68,-0.5"/>
<text text-anchor="middle" x="239.18" y="-14.8" font-family="Arial" font-size="14.00" fill="#000000">dma_controllers0</text>
</g>
<!-- board.cache_hierarchy.ruby_system.dma_controllers0&#45;&#45;board.cache_hierarchy.ruby_system.network.routers4 -->
<g id="edge30" class="edge">
<title>board.cache_hierarchy.ruby_system.dma_controllers0&#45;&#45;board.cache_hierarchy.ruby_system.network.routers4</title>
<path fill="none" stroke="#381526" d="M222.96,-45.51C219.93,-50.55 216.77,-55.82 213.74,-60.86"/>
<polygon fill="#381526" stroke="#381526" points="226.07,-47.13 228.21,-36.75 220.07,-43.52 226.07,-47.13"/>
<polygon fill="#381526" stroke="#381526" points="210.64,-59.23 208.49,-69.6 216.64,-62.83 210.64,-59.23"/>
</g>
<!-- board.cache_hierarchy.ruby_system.dma_controllers1 -->
<g id="node12" class="node">
<title>board.cache_hierarchy.ruby_system.dma_controllers1</title>
<path fill="#e5bcd0" stroke="#000000" d="M70.15,-225.2C70.15,-225.2 167.15,-225.2 167.15,-225.2 173.15,-225.2 179.15,-231.2 179.15,-237.2 179.15,-237.2 179.15,-249.2 179.15,-249.2 179.15,-255.2 173.15,-261.2 167.15,-261.2 167.15,-261.2 70.15,-261.2 70.15,-261.2 64.15,-261.2 58.15,-255.2 58.15,-249.2 58.15,-249.2 58.15,-237.2 58.15,-237.2 58.15,-231.2 64.15,-225.2 70.15,-225.2"/>
<text text-anchor="middle" x="118.65" y="-239.5" font-family="Arial" font-size="14.00" fill="#000000">dma_controllers1</text>
</g>
<!-- board.cache_hierarchy.ruby_system.dma_controllers1&#45;&#45;board.cache_hierarchy.ruby_system.network.routers5 -->
<g id="edge31" class="edge">
<title>board.cache_hierarchy.ruby_system.dma_controllers1&#45;&#45;board.cache_hierarchy.ruby_system.network.routers5</title>
<path fill="none" stroke="#381526" d="M131.43,-215.92C134.27,-209.86 137.28,-203.43 140.12,-197.36"/>
<polygon fill="#381526" stroke="#381526" points="128.18,-214.6 127.11,-225.14 134.52,-217.57 128.18,-214.6"/>
<polygon fill="#381526" stroke="#381526" points="143.32,-198.78 144.39,-188.24 136.98,-195.81 143.32,-198.78"/>
</g>
</g>
</svg>
